<svg xmlns="http://www.w3.org/2000/svg" width="58" height="58" fill="none"><rect width="58" height="58" fill="url(#a)" rx="6"/><path fill="#fff" fill-rule="evenodd" d="M28.786 45C37.741 45 45 37.741 45 28.787c0-8.955-7.26-16.214-16.214-16.214-8.954 0-16.213 7.26-16.213 16.214C12.573 37.74 19.832 45 28.786 45Zm-8.949-20.367c.87 0 1.566-.168 2.165-.441.561-.257 1.004-.595 1.35-.858l.027-.021c.37-.282.639-.482.961-.63.301-.137.685-.243 1.254-.243.604 0 .993.109 1.283.242.31.144.56.336.914.618l.027.021c.333.264.766.608 1.333.87.602.277 1.307.442 2.2.442.87 0 1.566-.168 2.164-.441.562-.257 1.005-.595 1.35-.858l.028-.021c.37-.282.638-.482.96-.63.302-.137.685-.243 1.254-.243.605 0 .993.109 1.283.242.31.144.56.336.915.618a1.095 1.095 0 0 0 1.361-1.716l-.026-.022c-.333-.264-.766-.608-1.333-.869-.602-.277-1.307-.443-2.2-.443-.87 0-1.566.168-2.164.442-.562.256-1.005.594-1.35.857l-.028.021c-.37.282-.638.482-.96.63-.302.137-.686.243-1.254.243-.605 0-.993-.109-1.283-.242-.31-.143-.56-.336-.915-.617l-.027-.022c-.332-.264-.766-.608-1.332-.869-.602-.277-1.308-.443-2.2-.443-.87 0-1.566.168-2.165.442-.561.256-1.004.594-1.35.857l-.027.021c-.37.282-.639.482-.961.63-.301.137-.685.243-1.254.243-.604 0-.993-.109-1.283-.242-.31-.143-.56-.336-.914-.617a1.095 1.095 0 0 0-1.362 1.716l.027.021c.332.264.766.608 1.332.87.603.277 1.308.442 2.2.442Zm0 6.58c.87 0 1.566-.169 2.165-.442.561-.257 1.004-.595 1.35-.858l.027-.021c.37-.282.639-.482.961-.629.301-.138.685-.244 1.254-.244.604 0 .993.109 1.283.243.31.143.56.335.914.617l.027.021c.333.264.766.608 1.333.87.602.277 1.307.442 2.2.442.87 0 1.566-.168 2.164-.441.562-.257 1.005-.595 1.35-.858l.028-.021c.37-.282.638-.482.96-.629.302-.138.685-.244 1.254-.244.605 0 .993.109 1.283.243.31.143.56.335.915.617a1.095 1.095 0 0 0 1.361-1.716l-.026-.022c-.333-.264-.766-.608-1.333-.869-.602-.277-1.307-.443-2.2-.443-.87 0-1.566.168-2.164.442-.562.257-1.005.594-1.35.857l-.028.021c-.37.282-.638.482-.96.63-.302.137-.686.243-1.254.243-.605 0-.993-.108-1.283-.242-.31-.143-.56-.336-.915-.617l-.027-.022c-.332-.264-.766-.608-1.332-.869-.602-.277-1.308-.443-2.2-.443-.87 0-1.566.168-2.165.442-.561.257-1.004.594-1.35.857l-.027.021c-.37.282-.639.482-.961.63-.301.137-.685.243-1.254.243-.604 0-.993-.108-1.283-.242-.31-.143-.56-.336-.914-.617a1.095 1.095 0 1 0-1.362 1.716l.027.021c.332.264.766.608 1.332.87.603.277 1.308.442 2.2.442Zm0 6.579c.87 0 1.566-.169 2.165-.442.561-.257 1.004-.595 1.35-.858l.027-.021c.37-.282.639-.481.961-.629.301-.138.685-.243 1.254-.243.604 0 .993.108 1.283.242.31.143.56.335.914.617l.027.021c.333.264.766.608 1.333.87.602.277 1.307.443 2.2.443.87 0 1.566-.169 2.164-.442.562-.257 1.005-.595 1.35-.858l.028-.021c.37-.282.638-.481.96-.629.302-.138.685-.243 1.254-.243.605 0 .993.108 1.283.242.31.143.56.335.915.617a1.095 1.095 0 1 0 1.361-1.716l-.026-.022c-.333-.264-.766-.608-1.333-.869-.602-.277-1.307-.443-2.2-.443-.87 0-1.566.168-2.164.442-.562.257-1.005.594-1.35.858l-.028.02c-.37.282-.638.482-.96.63-.302.137-.686.243-1.254.243-.605 0-.993-.108-1.283-.242-.31-.143-.56-.336-.915-.617l-.027-.022c-.332-.264-.766-.608-1.332-.869-.602-.277-1.308-.443-2.2-.443-.87 0-1.566.168-2.165.442-.561.257-1.004.594-1.35.858l-.027.02c-.37.282-.639.482-.961.63-.301.137-.685.243-1.254.243-.604 0-.993-.108-1.283-.242-.31-.143-.56-.336-.914-.617a1.095 1.095 0 1 0-1.362 1.716l.027.021c.332.264.766.608 1.332.87.603.277 1.308.443 2.2.443Z" clip-rule="evenodd"/><defs><linearGradient id="a" x1="29" x2="29" y1="23.5" y2="80.5" gradientUnits="userSpaceOnUse"><stop stop-color="#ED4D1C"/><stop offset="1" stop-color="#872C10"/></linearGradient></defs></svg>